HIERARCHY
ROOT Hips
{
  OFFSET 55.9669 93.6919 19.7172
  CHANNELS 6 Xposition Yposition Zposition Zrotation Xrotation Yrotation
  JOINT spine
  {
    OFFSET 0 7.4756 0.429885
    CHANNELS 3 Zrotation Xrotation Yrotation
    JOINT spine1
    {
      OFFSET 0 9.92301 0
      CHANNELS 3 Zrotation Xrotation Yrotation
      JOINT spine2
      {
        OFFSET 0 9.50804 0
        CHANNELS 3 Zrotation Xrotation Yrotation
        JOINT Neck
        {
          OFFSET 0 24.4111 1.16384
          CHANNELS 3 Zrotation Xrotation Yrotation
          JOINT Head
          {
            OFFSET 0 7.37523 0
            CHANNELS 3 Zrotation Xrotation Yrotation
            End Site
            {
              OFFSET 0 17.8522 -5.88741
            }
          }
        }
        JOINT RightShoulder
        {
          OFFSET -4.00356 10.2679 -0.557468
          CHANNELS 3 Zrotation Xrotation Yrotation
          JOINT RightArm
          {
            OFFSET 0 13.4673 0
            CHANNELS 3 Zrotation Xrotation Yrotation
            JOINT RightArmRoll
            {
              OFFSET 0 6.79858 0
              CHANNELS 3 Zrotation Xrotation Yrotation
              JOINT RightForeArm
              {
                OFFSET 0 19.8018 0
                CHANNELS 3 Zrotation Xrotation Yrotation
                JOINT RightForeArmRoll
                {
                  OFFSET 0 7.62906 0
                  CHANNELS 3 Zrotation Xrotation Yrotation
                  JOINT RightHand
                  {
                    OFFSET 0 15.3098 0
                    CHANNELS 3 Zrotation Xrotation Yrotation
                    End Site
                    {
                      OFFSET 0 0 0
                    }
                  }
                }
              }
            }
          }
        }
        JOINT LeftShoulder
        {
          OFFSET 4.00356 10.2679 -0.557468
          CHANNELS 3 Zrotation Xrotation Yrotation
          JOINT LeftArm
          {
            OFFSET 0 13.4673 0
            CHANNELS 3 Zrotation Xrotation Yrotation
            JOINT LeftArmRoll
            {
              OFFSET 0 6.79858 0
              CHANNELS 3 Zrotation Xrotation Yrotation
              JOINT LeftForeArm
              {
                OFFSET 0 19.8018 0
                CHANNELS 3 Zrotation Xrotation Yrotation
                JOINT LeftForeArmRoll
                {
                  OFFSET 0 7.62905 0
                  CHANNELS 3 Zrotation Xrotation Yrotation
                  JOINT LeftHand
                  {
                    OFFSET 0 15.3098 0
                    CHANNELS 3 Zrotation Xrotation Yrotation
                    End Site
                    {
                      OFFSET 0 0 0
                    }
                  }
                }
              }
            }
          }
        }
      }
    }
  }
  JOINT RightUpLeg
  {
    OFFSET -6.62609 -1.21505 -1.01927
    CHANNELS 3 Zrotation Xrotation Yrotation
    JOINT RightUpLegRoll
    {
      OFFSET 0 17.9517 0
      CHANNELS 3 Zrotation Xrotation Yrotation
      JOINT RightLeg
      {
        OFFSET 0 -22.2304 0
        CHANNELS 3 Zrotation Xrotation Yrotation
        JOINT RightLegRoll
        {
          OFFSET 0 22.3032 0
          CHANNELS 3 Zrotation Xrotation Yrotation
          JOINT RightFoot
          {
            OFFSET 0 18.5636 0
            CHANNELS 3 Zrotation Xrotation Yrotation
            JOINT RightToeBase
            {
              OFFSET 0 15.5183 0
              CHANNELS 3 Zrotation Xrotation Yrotation
              End Site
              {
                OFFSET 0.00657761 7.51539 -0.866263
              }
            }
          }
        }
      }
    }
  }
  JOINT LeftUpLeg
  {
    OFFSET 6.62609 -1.21505 -1.01927
    CHANNELS 3 Zrotation Xrotation Yrotation
    JOINT LeftUpLegRoll
    {
      OFFSET 0 17.9518 0
      CHANNELS 3 Zrotation Xrotation Yrotation
      JOINT LeftLeg
      {
        OFFSET 0 22.2303 0
        CHANNELS 3 Zrotation Xrotation Yrotation
        JOINT LeftLegRoll
        {
          OFFSET 0 22.5093 0
          CHANNELS 3 Zrotation Xrotation Yrotation
          JOINT LeftFoot
          {
            OFFSET 0 18.3575 0
            CHANNELS 3 Zrotation Xrotation Yrotation
            JOINT LeftToeBase
            {
              OFFSET 0 15.5183 0
              CHANNELS 3 Zrotation Xrotation Yrotation
              End Site
              {
                OFFSET -0.029478 7.51538 -0.866263
              }
            }
          }
        }
      }
    }
  }
}
MOTION
Frames: 6
Frame Time: 0.00208333
50.7619 111.065 22.4729 1.98455 2.52164 2.04365 0.0823329 -0.970579 0.284405 0.166146 2.06377 0.559425 0.159587 3.70882 0.557035 -9.91303 -10.8396 -6.38995 10.161 13.3427 -7.35219 58.4145 -5.88102 -3.62065 112.331 -0.218483 -39.7587 -3.25896e-007 3.56183e-007 -3.30196e-006 -89.0308 82.0513 78.1265 2.09767e-005 -3.12649e-006 -3.00158 8.03012 -4.95136 0.697651 -63.6267 -4.92381 3.35727 -103.105 -7.73392 19.2799 9.10637e-007 -1.18973e-006 4.27436e-008 0.109533 77.7192 4.31171 -8.53181e-007 2.01804e-006 3.00775 -8.03014 -4.95141 -0.69766 176.216 5.11796 -0.628132 180 7.01561e-015 178.987 -179.855 9.02389 179.479 -4.36033e-006 -2.03467e-007 0.220749 -20.0352 69.5721 20.9381 8.13607 25.2327 -3.48756 -178.265 5.9691 2.48848 4.54188e-006 -4.6773e-006 -0.901271 -2.78799 -6.56115 0.0380213 -1.69606e-007 -1.90836e-007 -0.0403988 17.5865 66.6388 -18.4839 -8.13649 25.2327 3.48774 
50.7624 110.887 22.4686 2.03121 2.47882 1.99211 0.0761385 -0.962836 0.299009 0.153835 2.07971 0.589319 0.146906 3.72476 0.587158 -10.016 -10.7828 -6.41761 10.2517 13.3039 -7.38997 58.3512 -5.8397 -3.59097 112.236 -0.224121 -40.0239 -3.25896e-007 3.56183e-007 -3.30196e-006 -89.2033 81.9897 78.2427 2.09767e-005 -3.12649e-006 -3.00158 8.03012 -4.95136 0.697651 -63.6034 -4.94845 3.36971 -103.089 -7.75999 19.2016 9.10637e-007 -1.18973e-006 4.27436e-008 -0.569867 77.4546 4.83424 -8.53181e-007 2.01804e-006 3.00775 -8.03014 -4.95141 -0.69766 176.177 4.99171 -0.615672 180 7.01561e-015 178.987 -179.843 8.84985 179.484 -4.36033e-006 -2.03467e-007 0.217732 -20.0317 69.5698 20.935 8.13607 25.2327 -3.48756 -178.316 5.91249 2.52788 4.54188e-006 -4.6773e-006 -0.90111 -2.77872 -6.5242 0.0372034 -1.69606e-007 -1.90836e-007 -0.0403821 17.6107 66.6743 -18.5107 -8.13649 25.2327 3.48774 
50.7923 110.69 22.4722 2.07897 2.43495 1.93912 0.0699234 -0.955094 0.313951 0.141508 2.09567 0.619893 0.134201 3.74071 0.617963 -10.1248 -10.7218 -6.44527 10.3461 13.2614 -7.42817 58.281 -5.79663 -3.55984 112.145 -0.224272 -40.2875 -3.25896e-007 3.56183e-007 -3.30196e-006 -89.3646 81.9304 78.3499 2.09767e-005 -3.12649e-006 -3.00158 8.03012 -4.95136 0.697651 -63.5856 -4.97235 3.38213 -103.067 -7.7804 19.1157 9.10637e-007 -1.18973e-006 4.27436e-008 -1.23831 77.1847 5.34275 -8.53181e-007 2.01804e-006 3.00775 -8.03014 -4.95141 -0.69766 176.137 4.86417 -0.601625 180 7.01561e-015 178.987 -179.833 8.67685 179.489 -4.36033e-006 -2.03467e-007 0.214711 -20.0283 69.5676 20.9321 8.13606 25.2327 -3.48755 -178.368 5.85566 2.56824 4.54188e-006 -4.6773e-006 -0.900972 -2.76912 -6.48898 0.0364288 -1.69606e-007 -1.90836e-007 -0.0403941 17.6348 66.7095 -18.5373 -8.13649 25.2327 3.48774 
50.7986 110.503 22.476 2.12734 2.39061 1.88505 0.0636708 -0.947485 0.329159 0.129124 2.11135 0.651001 0.121432 3.7564 0.649304 -10.2368 -10.6568 -6.47252 10.4423 13.2156 -7.46625 58.2069 -5.75192 -3.52751 112.055 -0.218027 -40.5488 -3.25896e-007 3.56183e-007 -3.30196e-006 -89.5144 81.8732 78.4476 2.09767e-005 -3.12649e-006 -3.00157 8.03012 -4.95136 0.697651 -63.572 -4.99553 3.39446 -103.041 -7.79555 19.0237 9.10637e-007 -1.18973e-006 4.27436e-008 -1.89186 76.9108 5.83427 -8.53181e-007 2.01804e-006 3.00775 -8.03014 -4.95141 -0.69766 176.096 4.73733 -0.586078 180 7.01561e-015 178.988 -179.824 8.50799 179.495 -4.36033e-006 -2.03467e-007 0.211744 -20.025 69.5657 20.9293 8.13606 25.2327 -3.48755 -178.421 5.7994 2.60943 4.54188e-006 -4.6773e-006 -0.900851 -2.75893 -6.45571 0.035733 -1.69606e-007 -1.90836e-007 -0.0404174 17.6584 66.7438 -18.5634 -8.13649 25.2327 3.48774 
50.8342 110.298 22.4947 2.17585 2.34639 1.83024 0.0573638 -0.940143 0.344558 0.116643 2.12649 0.682498 0.108562 3.77153 0.681034 -10.3497 -10.5876 -6.49899 10.5384 13.1667 -7.50366 58.1316 -5.70571 -3.49421 111.963 -0.204493 -40.8074 -3.25896e-007 3.56183e-007 -3.30196e-006 -89.6528 81.8179 78.5358 2.09767e-005 -3.12649e-006 -3.00157 8.03012 -4.95136 0.697651 -63.5612 -5.01801 3.40661 -103.01 -7.80584 18.9271 9.10637e-007 -1.18973e-006 4.27436e-008 -2.52699 76.6341 6.30628 -8.53181e-007 2.01804e-006 3.00775 -8.03014 -4.95141 -0.69766 176.054 4.61317 -0.569118 180 7.01562e-015 178.988 -179.817 8.34637 179.5 -4.36033e-006 -2.03467e-007 0.208888 -20.0219 69.5641 20.9268 8.13605 25.2327 -3.48755 -178.476 5.74447 2.65134 4.54188e-006 -4.6773e-006 -0.900741 -2.74787 -6.42458 0.0351517 -1.69606e-007 -1.90836e-007 -0.0404343 17.6812 66.7768 -18.5885 -8.13649 25.2327 3.48774 
50.8259 110.096 22.4927 2.22402 2.30289 1.77503 0.0509859 -0.933198 0.360072 0.104026 2.14081 0.714235 0.0955517 3.78585 0.713008 -10.4611 -10.5144 -6.52426 10.6325 13.115 -7.53985 58.0581 -5.65812 -3.46018 111.866 -0.18279 -41.0626 -3.25896e-007 3.56183e-007 -3.30196e-006 -89.7795 81.7644 78.6142 2.09767e-005 -3.12649e-006 -3.00156 8.03012 -4.95136 0.697651 -63.552 -5.0398 3.4185 -102.975 -7.81168 18.8273 9.10637e-007 -1.18973e-006 4.27436e-008 -3.14063 76.3558 6.75665 -8.53181e-007 2.01804e-006 3.00775 -8.03014 -4.95141 -0.69766 176.013 4.49366 -0.550831 180 7.01562e-015 178.989 -179.811 8.19512 179.505 -4.36033e-006 -2.03467e-007 0.206198 -20.0191 69.5627 20.9246 8.13604 25.2327 -3.48755 -178.53 5.69164 2.69385 4.54188e-006 -4.6773e-006 -0.900635 -2.73569 -6.39581 0.0347205 -1.69606e-007 -1.90836e-007 -0.0404272 17.7028 66.8079 -18.6122 -8.13649 25.2327 3.48774 
